<svg xmlns="http://www.w3.org/2000/svg" xmlns:xlink="http://www.w3.org/1999/xlink" version="1.1" x="0px" y="0px" viewBox="0 0 100 125" style="enable-background:new 0 0 100 100;" xml:space="preserve"><g><path d="M51,63.3l20.7-24.1c0,0,0-0.1-0.1-0.1l-6.4-10.4L51,45.3V63.3z"/><polygon points="28.4,39 49,63 49,45.1 34.9,28.5  "/><polygon points="51,42.2 64.1,26.8 51,5.6  "/><polygon points="49,5.6 36,26.7 49,42  "/><path d="M51,66.4v11.4c6.2-0.2,12.3-2.7,17-7.4c7.8-7.8,9.6-19.6,4.7-29.3L51,66.4z"/><path d="M27.4,40.9c-5,9.7-3.2,21.7,4.7,29.5c4.7,4.7,10.8,7.2,17,7.4V66.1L27.4,40.9z"/><path d="M49,93.4c0,0.6,0.4,1,1,1c0.6,0,1-0.4,1-1V77.8c-0.7,0-1.3,0-2,0V93.4z"/></g><text x="0" y="115" fill="#000000" font-size="5px" font-weight="bold" font-family="'Helvetica Neue', Helvetica, Arial-Unicode, Arial, Sans-serif">Created by Jony</text><text x="0" y="120" fill="#000000" font-size="5px" font-weight="bold" font-family="'Helvetica Neue', Helvetica, Arial-Unicode, Arial, Sans-serif">from the Noun Project</text></svg>